<svg width="21" height="21" viewBox="0 0 21 21" fill="none" xmlns="http://www.w3.org/2000/svg">
<g clip-path="url(#clip0_299_898)">
<path d="M20.0848 3.27918C19.7839 2.97773 19.2956 2.97721 18.9947 3.2779L9.74553 12.5026L6.40847 8.87825C6.12012 8.56525 5.6326 8.54495 5.31908 8.83326C5.0058 9.12161 4.98574 9.60937 5.27409 9.92265L9.15469 14.1371C9.2968 14.2915 9.4957 14.3812 9.70541 14.3856C9.71105 14.3858 9.71648 14.3858 9.72188 14.3858C9.92568 14.3858 10.1217 14.3049 10.2662 14.161L20.0833 4.36957C20.385 4.06892 20.3855 3.58064 20.0848 3.27918Z" fill="white"/>
<path d="M19.8965 9.93971C19.4707 9.93971 19.1256 10.2848 19.1256 10.7107C19.1256 15.5005 15.2291 19.397 10.4392 19.397C5.64967 19.397 1.75289 15.5005 1.75289 10.7107C1.75289 5.92115 5.64967 2.02438 10.4392 2.02438C10.8651 2.02438 11.2102 1.67925 11.2102 1.25342C11.2102 0.827547 10.8651 0.482422 10.4392 0.482422C4.79928 0.482422 0.210938 5.07077 0.210938 10.7107C0.210938 16.3504 4.79928 20.939 10.4392 20.939C16.0789 20.939 20.6675 16.3504 20.6675 10.7107C20.6675 10.2849 20.3224 9.93971 19.8965 9.93971Z" fill="white"/>
</g>
<defs>
<clipPath id="clip0_299_898">
<rect width="20.4566" height="20.4566" fill="white" transform="translate(0.210938 0.482422)"/>
</clipPath>
</defs>
</svg>
