<svg width="80" height="80" viewBox="0 0 80 80" fill="none" xmlns="http://www.w3.org/2000/svg">
<path d="M72.9492 5H64.6094C63.4758 5 62.5586 5.91725 62.5586 7.05078V9.10156H45.7746C44.9252 6.71965 42.6701 5 40 5C37.3299 5 35.0748 6.71965 34.2254 9.10156H17.4414V7.05078C17.4414 5.91725 16.5242 5 15.3906 5H7.05078C5.91725 5 5 5.91725 5 7.05078V15.2539C5 16.3874 5.91725 17.3047 7.05078 17.3047H15.3906C16.5242 17.3047 17.4414 16.3874 17.4414 15.2539V13.1758H25.8638C18.7467 17.622 14.0538 25.4312 13.4928 34.1778C11.0322 34.9832 9.23828 37.2738 9.23828 40C9.23828 43.3925 11.9981 46.1523 15.3906 46.1523C18.7832 46.1523 21.543 43.3925 21.543 40C21.543 37.3832 19.894 35.1584 17.5863 34.2705C18.2861 24.5191 25.0903 16.3001 34.5549 13.9551C35.5785 15.9344 37.6221 17.3047 40 17.3047C42.3779 17.3047 44.4215 15.9344 45.4451 13.9551C54.9097 16.2999 61.7139 24.5189 62.4137 34.2704C60.106 35.1584 58.457 37.3832 58.457 40C58.457 43.3925 61.2168 46.1523 64.6094 46.1523C68.0019 46.1523 70.7617 43.3925 70.7617 40C70.7617 37.2738 68.9678 34.9832 66.5072 34.1778C65.9462 25.4312 61.2533 17.6494 54.1362 13.2031H62.5586V15.2539C62.5586 16.3874 63.4758 17.3047 64.6094 17.3047H72.9492C74.0828 17.3047 75 16.3874 75 15.2539V7.05078C75 5.91725 74.0828 5 72.9492 5Z" fill="black"/>
<path d="M72.9492 5H64.6094C63.4758 5 62.5586 5.91725 62.5586 7.05078V9.10156H45.7746C44.9252 6.71965 42.6701 5 40 5C37.3299 5 35.0748 6.71965 34.2254 9.10156H17.4414V7.05078C17.4414 5.91725 16.5242 5 15.3906 5H7.05078C5.91725 5 5 5.91725 5 7.05078V15.2539C5 16.3874 5.91725 17.3047 7.05078 17.3047H15.3906C16.5242 17.3047 17.4414 16.3874 17.4414 15.2539V13.1758H25.8638C18.7467 17.622 14.0538 25.4312 13.4928 34.1778C11.0322 34.9832 9.23828 37.2738 9.23828 40C9.23828 43.3925 11.9981 46.1523 15.3906 46.1523C18.7832 46.1523 21.543 43.3925 21.543 40C21.543 37.3832 19.894 35.1584 17.5863 34.2705C18.2861 24.5191 25.0903 16.3001 34.5549 13.9551C35.5785 15.9344 37.6221 17.3047 40 17.3047C42.3779 17.3047 44.4215 15.9344 45.4451 13.9551C54.9097 16.2999 61.7139 24.5189 62.4137 34.2704C60.106 35.1584 58.457 37.3832 58.457 40C58.457 43.3925 61.2168 46.1523 64.6094 46.1523C68.0019 46.1523 70.7617 43.3925 70.7617 40C70.7617 37.2738 68.9678 34.9832 66.5072 34.1778C65.9462 25.4312 61.2533 17.6494 54.1362 13.2031H62.5586V15.2539C62.5586 16.3874 63.4758 17.3047 64.6094 17.3047H72.9492C74.0828 17.3047 75 16.3874 75 15.2539V7.05078C75 5.91725 74.0828 5 72.9492 5Z" fill="url(#paint0_linear_2359_1474)"/>
<path d="M53.9521 72.4563C52.8795 69.1739 49.7891 66.6602 46.1523 66.6602H33.8477C30.2109 66.6602 27.1205 69.1739 26.0479 72.4563C25.6343 73.7219 26.7109 75 28.0426 75H51.9574C53.2889 75 54.3657 73.7219 53.9521 72.4563Z" fill="black"/>
<path d="M53.9521 72.4563C52.8795 69.1739 49.7891 66.6602 46.1523 66.6602H33.8477C30.2109 66.6602 27.1205 69.1739 26.0479 72.4563C25.6343 73.7219 26.7109 75 28.0426 75H51.9574C53.2889 75 54.3657 73.7219 53.9521 72.4563Z" fill="url(#paint1_linear_2359_1474)"/>
<path d="M58.1125 47.0656L42.0508 22.9729V42.4285C44.4327 43.278 46.1523 45.533 46.1523 48.2031C46.1523 51.5957 43.3925 54.3555 40 54.3555C36.6075 54.3555 33.8477 51.5957 33.8477 48.2031C33.8477 45.533 35.5673 43.278 37.9492 42.4285V22.9729L21.8875 47.0656C21.3447 47.8787 21.4529 48.9622 22.1438 49.6532C25.9087 53.418 28.3152 58.2681 29.2439 63.4706C30.6685 62.8927 32.218 62.5586 33.8477 62.5586H46.1523C47.782 62.5586 49.3315 62.8926 50.7561 63.4704C51.6848 58.2675 54.0913 53.418 57.8562 49.6532C58.5471 48.9622 58.6553 47.8787 58.1125 47.0656Z" fill="black"/>
<path d="M58.1125 47.0656L42.0508 22.9729V42.4285C44.4327 43.278 46.1523 45.533 46.1523 48.2031C46.1523 51.5957 43.3925 54.3555 40 54.3555C36.6075 54.3555 33.8477 51.5957 33.8477 48.2031C33.8477 45.533 35.5673 43.278 37.9492 42.4285V22.9729L21.8875 47.0656C21.3447 47.8787 21.4529 48.9622 22.1438 49.6532C25.9087 53.418 28.3152 58.2681 29.2439 63.4706C30.6685 62.8927 32.218 62.5586 33.8477 62.5586H46.1523C47.782 62.5586 49.3315 62.8926 50.7561 63.4704C51.6848 58.2675 54.0913 53.418 57.8562 49.6532C58.5471 48.9622 58.6553 47.8787 58.1125 47.0656Z" fill="url(#paint2_linear_2359_1474)"/>
<path d="M40 46.1523C38.8685 46.1523 37.9492 47.0716 37.9492 48.2031C37.9492 49.3346 38.8685 50.2539 40 50.2539C41.1315 50.2539 42.0508 49.3346 42.0508 48.2031C42.0508 47.0716 41.1315 46.1523 40 46.1523Z" fill="black"/>
<path d="M40 46.1523C38.8685 46.1523 37.9492 47.0716 37.9492 48.2031C37.9492 49.3346 38.8685 50.2539 40 50.2539C41.1315 50.2539 42.0508 49.3346 42.0508 48.2031C42.0508 47.0716 41.1315 46.1523 40 46.1523Z" fill="url(#paint3_linear_2359_1474)"/>
<defs>
<linearGradient id="paint0_linear_2359_1474" x1="67.7073" y1="10.2473" x2="36.9283" y2="72.7605" gradientUnits="userSpaceOnUse">
<stop stop-color="#06D6A0" stop-opacity="0.5"/>
<stop offset="0.490644" stop-color="#71E094"/>
<stop offset="1" stop-color="#E0EA87"/>
</linearGradient>
<linearGradient id="paint1_linear_2359_1474" x1="67.7073" y1="10.2473" x2="36.9283" y2="72.7605" gradientUnits="userSpaceOnUse">
<stop stop-color="#06D6A0" stop-opacity="0.5"/>
<stop offset="0.490644" stop-color="#71E094"/>
<stop offset="1" stop-color="#E0EA87"/>
</linearGradient>
<linearGradient id="paint2_linear_2359_1474" x1="67.7073" y1="10.2473" x2="36.9283" y2="72.7605" gradientUnits="userSpaceOnUse">
<stop stop-color="#06D6A0" stop-opacity="0.5"/>
<stop offset="0.490644" stop-color="#71E094"/>
<stop offset="1" stop-color="#E0EA87"/>
</linearGradient>
<linearGradient id="paint3_linear_2359_1474" x1="67.7073" y1="10.2473" x2="36.9283" y2="72.7605" gradientUnits="userSpaceOnUse">
<stop stop-color="#06D6A0" stop-opacity="0.5"/>
<stop offset="0.490644" stop-color="#71E094"/>
<stop offset="1" stop-color="#E0EA87"/>
</linearGradient>
</defs>
</svg>
