<svg width="80" height="80" viewBox="0 0 80 80" fill="none" xmlns="http://www.w3.org/2000/svg">
<path d="M40 77.5C32.5832 77.5 25.333 75.3007 19.1661 71.1801C12.9993 67.0596 8.19282 61.2029 5.35453 54.3506C2.51625 47.4984 1.77362 39.9584 3.22057 32.6841C4.66751 25.4098 8.23904 18.728 13.4835 13.4835C18.728 8.23904 25.4098 4.66751 32.6841 3.22057C39.9584 1.77362 47.4984 2.51625 54.3506 5.35453C61.2029 8.19282 67.0596 12.9993 71.1801 19.1661C75.3007 25.333 77.5 32.5832 77.5 40C77.4888 49.9422 73.5343 59.4739 66.5041 66.5041C59.4739 73.5343 49.9422 77.4888 40 77.5ZM40 7.50002C33.5721 7.50002 27.2886 9.40611 21.944 12.9773C16.5994 16.5484 12.4338 21.6242 9.97393 27.5628C7.51408 33.5014 6.87047 40.0361 8.12449 46.3405C9.37851 52.6448 12.4738 58.4358 17.019 62.981C21.5643 67.5262 27.3552 70.6215 33.6596 71.8755C39.964 73.1296 46.4986 72.4859 52.4372 70.0261C58.3758 67.5662 63.4516 63.4006 67.0228 58.056C70.5939 52.7114 72.5 46.4279 72.5 40C72.4901 31.3835 69.0628 23.1228 62.97 17.03C56.8772 10.9372 48.6165 7.50994 40 7.50002ZM53.8088 19.8L33.2113 27.1563C31.8166 27.6542 30.55 28.4557 29.5029 29.5029C28.4557 30.55 27.6542 31.8166 27.1563 33.2113L19.8 53.8088C19.4813 54.7004 19.4223 55.6642 19.6299 56.588C19.8375 57.5119 20.3032 58.3578 20.9727 59.0273C21.6423 59.6969 22.4882 60.1625 23.412 60.3701C24.3358 60.5777 25.2996 60.5187 26.1913 60.2L46.7888 52.8438C48.1834 52.3458 49.45 51.5443 50.4972 50.4972C51.5443 49.45 52.3458 48.1834 52.8438 46.7888L60.2 26.19C60.5184 25.2985 60.5771 24.3348 60.3694 23.4112C60.1616 22.4876 59.6959 21.6419 59.0265 20.9726C58.357 20.3032 57.5112 19.8377 56.5875 19.6301C55.6639 19.4225 54.7003 19.4814 53.8088 19.8ZM40 45C39.0111 45 38.0444 44.7068 37.2222 44.1574C36.3999 43.608 35.7591 42.8271 35.3806 41.9134C35.0022 40.9998 34.9032 39.9945 35.0961 39.0246C35.289 38.0547 35.7652 37.1637 36.4645 36.4645C37.1637 35.7652 38.0547 35.289 39.0246 35.0961C39.9945 34.9032 40.9998 35.0022 41.9134 35.3806C42.8271 35.7591 43.608 36.3999 44.1574 37.2222C44.7068 38.0444 45 39.0111 45 40C45 41.3261 44.4732 42.5979 43.5355 43.5355C42.5979 44.4732 41.3261 45 40 45Z" fill="url(#paint0_linear_2359_1467)"/>
<defs>
<linearGradient id="paint0_linear_2359_1467" x1="69.6864" y1="8.12214" x2="36.7089" y2="75.1005" gradientUnits="userSpaceOnUse">
<stop stop-color="#06D6A0" stop-opacity="0.5"/>
<stop offset="0.490644" stop-color="#71E094"/>
<stop offset="1" stop-color="#E0EA87"/>
</linearGradient>
</defs>
</svg>
