<svg width="24" height="24" viewBox="0 0 24 24" fill="none" xmlns="http://www.w3.org/2000/svg">
<g clip-path="url(#clip0_2364_180)">
<path d="M23.3598 10.1533C22.9583 9.6717 22.6449 9.1231 22.434 8.53267C22.2681 8.03261 22.0667 7.54503 21.8314 7.07367C21.5628 6.50662 21.3959 5.89679 21.3383 5.27197C21.2589 4.60718 20.9584 3.98836 20.4851 3.51486C20.0118 3.04137 19.3931 2.74067 18.7283 2.66107C18.1032 2.60323 17.4931 2.43634 16.9256 2.16797C16.4544 1.93223 15.9668 1.73083 15.4666 1.56537C14.8762 1.35439 14.3277 1.04066 13.8466 0.638672C13.3166 0.231575 12.667 0.0109956 11.9987 0.0112307C11.3304 0.0114658 10.6809 0.232502 10.1512 0.639972C9.67089 1.04121 9.12338 1.3543 8.53399 1.56477C8.03381 1.73031 7.54621 1.9317 7.07499 2.16737C6.50721 2.43601 5.89674 2.60307 5.27129 2.66097C4.60668 2.74055 3.98806 3.04112 3.51475 3.51443C3.04144 3.98774 2.74087 4.60635 2.66129 5.27097C2.60371 5.89719 2.43596 6.50831 2.16579 7.07617C1.93141 7.54704 1.73071 8.03392 1.56519 8.53317C1.35432 9.12296 1.04128 9.67102 0.640393 10.1523C0.225673 10.6786 0.000108873 11.3292 3.94019e-08 11.9994C-0.000108794 12.6695 0.225244 13.3202 0.639793 13.8467C1.04127 14.3282 1.35467 14.8768 1.56559 15.4673C1.73146 15.9673 1.93284 16.4549 2.16819 16.9263C2.43682 17.4933 2.60373 18.1032 2.66129 18.728C2.74067 19.3928 3.04115 20.0116 3.51448 20.4851C3.98781 20.9586 4.60653 21.2593 5.27129 21.3389C5.89638 21.3967 6.50649 21.5636 7.07399 21.832C7.54518 22.0677 8.03278 22.2691 8.53299 22.4346C9.1234 22.6456 9.67185 22.9593 10.153 23.3613C10.6799 23.7753 11.3307 24.0002 12.0009 24C12.671 23.9997 13.3217 23.7743 13.8483 23.3599C14.3286 22.9586 14.8761 22.6455 15.4655 22.4351C15.9657 22.2695 16.4533 22.0681 16.9245 21.8325C17.4923 21.5638 18.1027 21.3968 18.7282 21.3389C19.3928 21.2593 20.0114 20.9587 20.4847 20.4854C20.958 20.0121 21.2586 19.3935 21.3382 18.7289C21.3957 18.1029 21.5633 17.4919 21.8333 16.9242C22.0677 16.4533 22.2684 15.9664 22.4339 15.4672C22.6448 14.8774 22.9578 14.3293 23.3587 13.8481C23.7735 13.3217 23.9991 12.6712 23.9993 12.001C23.9995 11.3309 23.7743 10.6798 23.3598 10.1533ZM21.7875 12.6113C21.2416 13.2737 20.8177 14.0277 20.5355 14.8384C20.4 15.2466 20.2358 15.6447 20.0443 16.0298C19.6714 16.8036 19.4371 17.6369 19.3519 18.4917C19.3257 18.7112 19.2264 18.9156 19.07 19.0719C18.9136 19.2283 18.7092 19.3274 18.4896 19.3535C17.6355 19.439 16.8028 19.6725 16.0287 20.0435C15.644 20.2362 15.2458 20.4007 14.8373 20.5357C14.0277 20.8192 13.2744 21.243 12.6117 21.7877C12.4376 21.9246 12.2226 21.9992 12.0011 21.9997C11.7796 22.0001 11.5644 21.9263 11.3898 21.79C10.7263 21.2445 9.97193 20.82 9.16129 20.536C8.7527 20.4009 8.35448 20.2363 7.96979 20.0435C7.19601 19.6726 6.3636 19.4391 5.50979 19.3535C5.29012 19.3274 5.08561 19.2282 4.92919 19.0718C4.77277 18.9154 4.67355 18.7108 4.64749 18.4912C4.56229 17.6375 4.32861 16.8054 3.95699 16.0322C3.76454 15.6466 3.59976 15.2478 3.46389 14.8389C3.18167 14.0275 2.75733 13.2727 2.21069 12.61C2.07388 12.4357 1.9996 12.2205 1.99978 11.9989C1.99996 11.7774 2.0746 11.5623 2.21169 11.3883C2.75761 10.7259 3.18152 9.97182 3.46369 9.16117C3.59923 8.75306 3.76337 8.355 3.95489 7.96997C4.32777 7.1961 4.56212 6.36286 4.64729 5.50807C4.67352 5.2885 4.77285 5.08414 4.92929 4.92786C5.08573 4.77158 5.2902 4.67247 5.50979 4.64647C6.3639 4.56091 7.19661 4.32743 7.97069 3.95647C8.35537 3.76374 8.75355 3.59924 9.16209 3.46427C9.97165 3.18071 10.725 2.75691 11.3877 2.21227C11.5618 2.07529 11.7768 2.00062 11.9983 2.0002C12.2199 1.99979 12.4352 2.07364 12.6098 2.20997C13.2733 2.75545 14.0277 3.17992 14.8383 3.46397C15.2468 3.59887 15.645 3.76334 16.0297 3.95607C16.8035 4.32699 17.6359 4.56047 18.4897 4.64607C18.7094 4.67213 18.9139 4.77135 19.0703 4.92777C19.2267 5.08419 19.3259 5.2887 19.352 5.50837C19.4372 6.362 19.6709 7.19417 20.0425 7.96737C20.2349 8.35294 20.3997 8.75172 20.5356 9.16067C20.8178 9.97194 21.2421 10.7265 21.7886 11.3892C21.9254 11.5634 21.9997 11.7786 21.9995 12.0002C21.9993 12.2218 21.9246 12.4372 21.7875 12.6113Z" fill="#E0EA87"/>
<path d="M14.2924 9.29304L11.7064 11.8784C11.519 12.066 11.2647 12.1714 10.9995 12.1715C10.7344 12.1716 10.48 12.0663 10.2924 11.8789L9.70643 11.293C9.51783 11.1109 9.26523 11.0101 9.00303 11.0124C8.74083 11.0146 8.49002 11.1198 8.30461 11.3052C8.1192 11.4906 8.01403 11.7414 8.01176 12.0036C8.00948 12.2658 8.11027 12.5184 8.29243 12.707L8.87833 13.2935C9.44156 13.8549 10.2043 14.17 10.9995 14.1699C11.7947 14.1698 12.5574 13.8545 13.1205 13.293L15.7064 10.707C15.8886 10.5184 15.9894 10.2658 15.9871 10.0036C15.9848 9.74144 15.8797 9.49063 15.6942 9.30522C15.5088 9.11981 15.258 9.01465 14.9958 9.01237C14.7336 9.01009 14.481 9.11088 14.2924 9.29304Z" fill="#5CFAA9"/>
</g>
<defs>
<clipPath id="clip0_2364_180">
<rect width="24" height="24" fill="white"/>
</clipPath>
</defs>
</svg>
