<svg width="159" height="36" viewBox="0 0 159 36" fill="none" xmlns="http://www.w3.org/2000/svg">
<path d="M145.332 15.2343H147.287C148.929 15.1709 150.563 15.4797 152.068 16.1376C153.707 16.9241 155 18.2838 155.704 19.9596C156.247 21.2986 156.512 22.7343 156.481 24.179C156.481 27.9096 155.129 30.6085 152.425 32.2759C151.62 32.7811 150.731 33.1398 149.801 33.3352C148.516 33.5596 147.212 33.6565 145.909 33.6245H137.719V8.45094H142.774L142.804 15.2444V29.7019H146.55C147.219 29.7521 147.891 29.6452 148.511 29.3896C149.132 29.134 149.684 28.7369 150.123 28.23C150.972 27.1137 151.409 25.7389 151.361 24.3376C151.361 20.8956 149.757 19.1745 146.55 19.1745H142.804L145.332 15.2343Z" fill="white"/>
<path d="M31.3859 33.6245H26.3789V8.46358H31.4312L31.3859 33.6245Z" fill="white"/>
<path d="M47.6611 29.7019V15.2343H52.7134V33.6244H42.7321C41.6106 33.6542 40.4897 33.5495 39.3932 33.3125C38.6147 33.0992 37.9002 32.6983 37.3124 32.145C36.0225 30.9708 35.3767 29.1023 35.375 26.5392V15.2343H40.4273V27.06C40.3893 27.7629 40.6205 28.4539 41.074 28.9924C41.3055 29.2299 41.5851 29.4151 41.8941 29.5358C42.203 29.6564 42.5342 29.7096 42.8654 29.6918L47.6611 29.7019Z" fill="white"/>
<path d="M63.3566 15.2344H68.0265V19.1671H63.3566V25.8373C63.3566 27.3948 63.495 28.3836 63.7843 28.7887C64.0576 29.1149 64.4075 29.3681 64.8028 29.5257C65.198 29.6834 65.6261 29.7405 66.0488 29.6919H68.0441V33.5844H64.3681C62.1757 33.5844 60.6183 33.066 59.6957 32.0294C58.7731 30.9928 58.3085 29.2223 58.3018 26.718V19.1571H55.0938V15.2269H58.3018H63.3566V15.2344Z" fill="white"/>
<path d="M78.8646 14.9626C82.2613 14.9626 84.7691 15.9456 86.3878 17.9115C87.9176 19.8212 88.7104 22.217 88.622 24.6623C88.6801 25.943 88.4595 27.2209 87.9756 28.4081C87.4917 29.5954 86.756 30.6634 85.8191 31.5387C84.1048 33.0936 81.769 33.872 78.8118 33.8737C75.8529 33.8737 73.3619 33.0006 71.5856 31.2418C69.987 29.6315 69.1877 27.3142 69.1877 24.2899C69.1171 21.9245 69.9523 19.6213 71.5227 17.8511C73.2001 15.9556 75.6474 14.9928 78.8646 14.9626ZM78.9049 18.855C75.8688 18.855 74.3508 20.7412 74.3508 24.5137C74.2748 25.7266 74.5277 26.9376 75.0829 28.0187C75.4763 28.6788 76.0439 29.2176 76.7234 29.5763C77.403 29.9349 78.1682 30.0995 78.9351 30.0517C81.9427 30.0517 83.4431 28.1772 83.4364 24.4282C83.4297 20.6792 81.92 18.8131 78.9074 18.8299L78.9049 18.855Z" fill="white"/>
<path d="M112.154 8.45353V33.6145H106.807V23.1978H97.0576V33.6145H91.7109V8.45353H97.0576V18.7218H106.792V8.45353H112.154Z" fill="white"/>
<path d="M128.48 29.7019V15.2343H133.542V33.6244H123.584C122.462 33.6554 121.341 33.5507 120.245 33.3125C119.464 33.1003 118.746 32.6993 118.156 32.145C116.866 30.9775 116.227 29.1081 116.227 26.5392V15.2343H121.271V27.06C121.233 27.7629 121.465 28.4539 121.918 28.9924C122.15 29.2299 122.429 29.4151 122.738 29.5358C123.047 29.6564 123.378 29.7096 123.709 29.6918L128.48 29.7019Z" fill="white"/>
<path d="M5.03218 33.5844H0V28.6754C0.00224578 27.0899 0.445053 25.5363 1.27899 24.1878C2.11293 22.8394 3.3052 21.7493 4.72271 21.0391H0V1.05366H7.95588C12.116 1.05765 16.1046 2.71206 19.0462 5.65371C21.9879 8.59537 23.6422 12.584 23.6462 16.7441V16.8724C23.6462 19.0745 22.7715 21.1865 21.2143 22.7437C19.6572 24.3008 17.5452 25.1755 15.3431 25.1755H8.53208C7.60394 25.1801 6.71513 25.5509 6.05883 26.2072C5.40253 26.8635 5.03178 27.7523 5.02715 28.6804L5.03218 33.5844ZM5.03218 6.08586V20.8957C6.13348 20.3975 7.32841 20.1402 8.53712 20.1408H15.3482C16.2157 20.1408 17.0476 19.7962 17.6611 19.1828C18.2745 18.5694 18.6191 17.7374 18.6191 16.8699V16.7416C18.6164 13.9157 17.4926 11.2062 15.4944 9.20801C13.4962 7.20979 10.7868 6.086 7.96092 6.08334L5.03218 6.08586Z" fill="white"/>
<path d="M58.3047 8.45353V13.1284L63.3595 15.8861V15.2344V8.45353H58.3047Z" fill="#06D6A0"/>
</svg>
