<svg width="44" height="44" viewBox="0 0 44 44" fill="none" xmlns="http://www.w3.org/2000/svg">
<rect x="0.5" y="0.5" width="43" height="43" rx="21.5" fill="white"/>
<rect x="0.5" y="0.5" width="43" height="43" rx="21.5" stroke="#06D6A0"/>
<path fill-rule="evenodd" clip-rule="evenodd" d="M13.6001 16C13.6001 15.6817 13.7265 15.3765 13.9516 15.1515C14.1766 14.9264 14.4818 14.8 14.8001 14.8H29.2001C29.5183 14.8 29.8236 14.9264 30.0486 15.1515C30.2736 15.3765 30.4001 15.6817 30.4001 16C30.4001 16.3183 30.2736 16.6235 30.0486 16.8485C29.8236 17.0736 29.5183 17.2 29.2001 17.2H14.8001C14.4818 17.2 14.1766 17.0736 13.9516 16.8485C13.7265 16.6235 13.6001 16.3183 13.6001 16ZM13.6001 22C13.6001 21.6817 13.7265 21.3765 13.9516 21.1515C14.1766 20.9264 14.4818 20.8 14.8001 20.8H22.0001C22.3183 20.8 22.6236 20.9264 22.8486 21.1515C23.0736 21.3765 23.2001 21.6817 23.2001 22C23.2001 22.3182 23.0736 22.6235 22.8486 22.8485C22.6236 23.0735 22.3183 23.2 22.0001 23.2H14.8001C14.4818 23.2 14.1766 23.0735 13.9516 22.8485C13.7265 22.6235 13.6001 22.3182 13.6001 22ZM13.6001 28C13.6001 27.6818 13.7265 27.3765 13.9516 27.1515C14.1766 26.9265 14.4818 26.8 14.8001 26.8H29.2001C29.5183 26.8 29.8236 26.9265 30.0486 27.1515C30.2736 27.3765 30.4001 27.6818 30.4001 28C30.4001 28.3182 30.2736 28.6235 30.0486 28.8485C29.8236 29.0735 29.5183 29.2 29.2001 29.2H14.8001C14.4818 29.2 14.1766 29.0735 13.9516 28.8485C13.7265 28.6235 13.6001 28.3182 13.6001 28Z" fill="black"/>
</svg>
