<svg width="131" height="131" viewBox="0 0 131 131" fill="none" xmlns="http://www.w3.org/2000/svg">
<g clip-path="url(#clip0_1_1680)">
<g filter="url(#filter0_f_1_1680)">
<path d="M42.377 98.8991L47.0262 98.4181L45.3368 109.298C45.1225 110.679 46.1884 111.932 47.5958 111.932C48.7025 111.932 49.6743 111.127 49.8493 109.999L51.7156 97.98C52.0867 95.5904 50.0941 93.5071 47.703 93.7574L42.7256 94.2722L42.5186 93.1336L49.968 86.5947C51.174 85.5359 51.5542 83.8358 50.9143 82.3645L49.8067 79.8169C49.0255 78.0207 46.9772 77.1515 45.1429 77.8401L38.9785 80.1518L36.4574 79.7137L38.6095 69.9578H39.6182C41.2515 69.9578 42.6663 68.9071 43.1388 67.3426L49.2142 47.1942C49.5784 45.9871 48.8946 44.713 47.6872 44.3488C46.4813 43.9847 45.2062 44.6682 44.8418 45.8759L38.9572 65.3914H37.8953C36.1831 65.3914 34.6728 66.6049 34.3038 68.2769L31.7976 79.6382C31.3467 81.6813 32.6957 83.6955 34.7595 84.0541C40.4572 85.0445 38.3234 85.2753 45.9558 82.4132L46.4679 83.5911C36.9013 91.9882 37.3976 90.4949 38.38 95.9C38.7225 97.7782 40.4755 99.0964 42.377 98.8991Z" fill="url(#paint0_linear_1_1680)"/>
</g>
<path d="M42.2738 95.5555L46.176 95.1517L44.7581 104.284C44.5782 105.442 45.4728 106.495 46.6541 106.495C47.583 106.495 48.3986 105.818 48.5455 104.872L50.1119 94.784C50.4234 92.7784 48.751 91.0298 46.7441 91.2398L42.5664 91.6719L42.3926 90.7162L48.6452 85.228C49.6574 84.3392 49.9765 82.9124 49.4394 81.6774L48.5098 79.5391C47.8541 78.0315 46.1349 77.3019 44.5953 77.88L39.4213 79.8202L37.3053 79.4525L39.1116 71.264H39.9582C41.3291 71.264 42.5166 70.3822 42.9132 69.069L48.0125 52.1578C48.3181 51.1446 47.7442 50.0753 46.7308 49.7696C45.7186 49.464 44.6485 50.0377 44.3426 51.0514L39.4035 67.4313H38.5122C37.0751 67.4313 35.8074 68.4499 35.4977 69.8532L33.3942 79.3891C33.0157 81.104 34.148 82.7945 35.8802 83.0956C40.6625 83.9268 38.8714 84.1205 45.2776 81.7183L45.7074 82.7069C37.6779 89.7549 38.0944 88.5016 38.919 93.0382C39.2064 94.6146 40.6778 95.721 42.2738 95.5555Z" fill="url(#paint1_linear_1_1680)"/>
<path d="M96.003 14.4238L91.2279 10.9752V7.71285C91.2279 6.10582 90.0208 4.78422 88.4204 4.63883L79.4542 3.82369C78.5938 3.74575 77.7321 4.03475 77.0933 4.61813C75.8773 5.72866 76.0878 7.0012 76.0878 8.70047L72.7639 9.43001C72.3951 8.21266 71.2948 7.31065 69.9599 7.24523L67.2 7.11057C65.1077 7.01091 64.3656 8.66035 63.5308 9.95614L62.073 8.80371L63.3103 6.93783C64.0664 5.7974 63.9752 4.27342 63.0888 3.23213L61.9427 1.88447C60.9666 0.736886 59.3164 0.461169 58.0206 1.22725L55.8304 2.52176L53.6324 2.25703C52.4733 2.11675 51.3512 2.63189 50.7009 3.59959L46.3689 10.044C45.6583 11.1014 45.6754 12.5104 46.4119 13.5504L48.0651 15.8844C47.0415 17.3019 45.9488 18.4057 46.603 20.2139L50.4587 30.8549L46.5358 43.834C46.2297 44.8472 46.8028 45.9168 47.816 46.223C48.8299 46.5296 49.8986 45.9562 50.2052 44.943L54.1996 31.726C54.3905 31.0938 54.3719 30.4036 54.147 29.7822L50.3414 19.2797L51.4846 17.6964C52.2581 16.6257 52.265 15.1822 51.5012 14.1047L49.8372 11.7553L53.627 6.11732C57.0309 6.52745 56.3773 6.65138 59.4298 4.84683L59.8052 5.28813L58.4994 7.25724C57.6194 8.58421 57.9084 10.3974 59.1574 11.3851L61.7991 13.473C63.2244 14.5996 65.3203 14.2562 66.3082 12.7228L67.4438 10.9599L69.1463 11.0429C69.5248 12.6453 71.1333 13.7112 72.8124 13.3434L77.4958 12.3155C78.9009 12.0068 79.9208 10.7388 79.9208 9.30045V7.71464L87.395 8.39409V11.3564C87.395 12.3451 87.8734 13.2806 88.6744 13.8589L93.3772 17.2554L92.3686 22.8019L84.5696 28.0032L81.2848 28.8876C79.9397 29.2497 79.0006 30.4754 79.0006 31.8683V33.8967C79.0006 34.9904 79.5875 36.0123 80.532 36.5632L83.214 38.1275L84.0164 46.5501L81.1767 47.7671C80.1004 48.2281 79.3675 49.2817 79.3093 50.4502C79.1074 54.4832 79.0044 53.9865 82.2987 56.7868L81.2904 59.9247L79.1066 62.1082L74.5534 61.0963C72.1529 60.5628 70.1197 62.9224 71.0025 65.2178L75.1498 76.0006C75.4957 76.9004 76.2559 77.5954 77.1825 77.8601L80.107 78.6957L80.3023 82.2113C79.7 82.4947 78.5337 82.9061 78.0743 84.3529C77.5839 85.8976 78.3561 86.8535 79.1889 88.321L77.3307 87.917C75.1038 87.4315 73.1331 89.4494 73.6771 91.6687L75.2392 98.037C75.579 99.4212 76.8117 100.388 78.2368 100.388H81.2881L81.3584 102.569L75.0054 105.471C74.3816 105.756 73.8639 106.248 73.5473 106.858L71.5424 110.723C71.1883 111.406 71.1019 112.192 71.2997 112.936L73.7137 122.024L64.8831 126.957L45.5855 123.943L47.516 112.427C47.6913 111.383 46.9868 110.395 45.943 110.22C44.8991 110.046 43.911 110.749 43.736 111.793L41.7832 123.442C41.4663 125.48 42.8669 127.397 44.9055 127.716C65.9144 130.997 64.4758 130.793 64.8953 130.793C65.5326 130.793 66.1669 130.63 66.7255 130.318L75.6429 125.336C77.1383 124.501 77.8752 122.761 77.4357 121.106L75.078 112.23L76.8309 108.852L83.4026 105.85C84.5377 105.331 85.2452 104.19 85.2051 102.942L85.0955 99.5423C85.0411 97.8673 83.686 96.5554 82.0102 96.5554H78.8215L77.6838 91.9168L80.0056 92.4215C81.1941 92.6798 82.4275 92.2137 83.1478 91.2343C83.8684 90.2549 83.9461 88.9386 83.3459 87.8812L82.0621 85.6193L82.3887 85.4655C83.5327 84.9273 84.2264 83.7636 84.1564 82.5011L83.904 77.9526C83.8311 76.641 82.9332 75.5172 81.6699 75.1561L78.5928 74.2771L75.0782 65.1398L78.6738 65.9389C79.7094 66.1691 80.776 65.8589 81.5265 65.1084C85.2859 61.3491 84.3759 62.8488 86.099 57.4865C86.4828 56.2947 86.1143 55.0004 85.1599 54.1891L83.0487 52.3945L83.1131 51.1067L86.0256 49.8584C87.2639 49.3279 88.0103 48.0702 87.8826 46.7284L86.9928 37.3832C86.8988 36.3963 86.3317 35.5089 85.4752 35.0091L82.8328 33.4677V32.4394C85.914 31.61 86.0496 31.6225 86.5937 31.2594L94.7573 25.8148C95.4503 25.3531 95.9333 24.6184 96.0828 23.7984L97.2324 17.4769C97.4442 16.315 96.9615 15.1161 96.003 14.4238Z" fill="white" fill-opacity="0.2"/>
</g>
<defs>
<filter id="filter0_f_1_1680" x="17.7106" y="30.251" width="48.0496" height="95.6816" filterUnits="userSpaceOnUse" color-interpolation-filters="sRGB">
<feFlood flood-opacity="0" result="BackgroundImageFix"/>
<feBlend mode="normal" in="SourceGraphic" in2="BackgroundImageFix" result="shape"/>
<feGaussianBlur stdDeviation="7" result="effect1_foregroundBlur_1_1680"/>
</filter>
<linearGradient id="paint0_linear_1_1680" x1="45.6363" y1="88.7968" x2="-11.6566" y2="26.4708" gradientUnits="userSpaceOnUse">
<stop stop-color="#F69923"/>
<stop offset="0.193179" stop-color="white" stop-opacity="0"/>
<stop offset="1" stop-color="white" stop-opacity="0"/>
</linearGradient>
<linearGradient id="paint1_linear_1_1680" x1="45.0095" y1="87.0763" x2="-3.07836" y2="34.764" gradientUnits="userSpaceOnUse">
<stop stop-color="#F69923"/>
<stop offset="0.193179" stop-color="white" stop-opacity="0.7"/>
<stop offset="1" stop-color="white" stop-opacity="0.3"/>
</linearGradient>
<clipPath id="clip0_1_1680">
<rect width="130" height="130" fill="white" transform="translate(0.301758 0.795898)"/>
</clipPath>
</defs>
</svg>
