<svg width="32" height="24" viewBox="0 0 32 24" fill="none" xmlns="http://www.w3.org/2000/svg">
<path d="M0 23.7955V17.25C0 15.3182 0.363636 13.2841 1.09091 11.1477C1.81818 9.01136 2.82955 6.96591 4.125 5.01136C5.42045 3.05681 6.94318 1.38636 8.69318 0L13.7386 3.61363C12.3523 5.63636 11.1705 7.75 10.1932 9.95454C9.21591 12.1591 8.72727 14.5568 8.72727 17.1477V23.7955H0ZM17.3864 23.7955V17.25C17.3864 15.3182 17.75 13.2841 18.4773 11.1477C19.2045 9.01136 20.2159 6.96591 21.5114 5.01136C22.8068 3.05681 24.3295 1.38636 26.0795 0L31.125 3.61363C29.7386 5.63636 28.5568 7.75 27.5795 9.95454C26.6023 12.1591 26.1136 14.5568 26.1136 17.1477V23.7955H17.3864Z" fill="white"/>
</svg>
