<svg width="80" height="62" viewBox="0 0 80 62" fill="none" xmlns="http://www.w3.org/2000/svg">
<path d="M18.6667 49.6663C17.596 49.6663 16.5907 49.249 15.8373 48.493L1.172 33.8277C0.417333 33.0757 0 32.0703 0 30.9997C0 29.929 0.417333 28.9237 1.17333 28.1703L15.8387 13.505C16.5907 12.7503 17.596 12.333 18.6667 12.333C20.872 12.333 22.6667 14.1277 22.6667 16.333C22.6667 17.4037 22.2493 18.409 21.4933 19.1623L9.656 30.9997L21.4947 42.8383C22.2507 43.5903 22.6667 44.5957 22.6667 45.6663C22.6667 47.8717 20.872 49.6663 18.6667 49.6663Z" fill="black"/>
<path d="M18.6667 49.6663C17.596 49.6663 16.5907 49.249 15.8373 48.493L1.172 33.8277C0.417333 33.0757 0 32.0703 0 30.9997C0 29.929 0.417333 28.9237 1.17333 28.1703L15.8387 13.505C16.5907 12.7503 17.596 12.333 18.6667 12.333C20.872 12.333 22.6667 14.1277 22.6667 16.333C22.6667 17.4037 22.2493 18.409 21.4933 19.1623L9.656 30.9997L21.4947 42.8383C22.2507 43.5903 22.6667 44.5957 22.6667 45.6663C22.6667 47.8717 20.872 49.6663 18.6667 49.6663Z" fill="url(#paint0_linear_2359_1482)"/>
<path d="M61.3333 50.9997C59.128 50.9997 57.3333 49.205 57.3333 46.9997C57.3333 45.929 57.7507 44.9237 58.5067 44.1703L70.344 32.333L58.5053 20.4943C57.7507 19.7397 57.3333 18.7343 57.3333 17.6663C57.3333 15.461 59.128 13.6663 61.3333 13.6663C62.404 13.6663 63.4093 14.0837 64.1627 14.8397L78.828 29.505C79.584 30.2597 80 31.265 80 32.333C80 33.4037 79.5827 34.409 78.8267 35.1623L64.1613 49.8277C63.4093 50.5837 62.404 50.9997 61.3333 50.9997Z" fill="black"/>
<path d="M61.3333 50.9997C59.128 50.9997 57.3333 49.205 57.3333 46.9997C57.3333 45.929 57.7507 44.9237 58.5067 44.1703L70.344 32.333L58.5053 20.4943C57.7507 19.7397 57.3333 18.7343 57.3333 17.6663C57.3333 15.461 59.128 13.6663 61.3333 13.6663C62.404 13.6663 63.4093 14.0837 64.1627 14.8397L78.828 29.505C79.584 30.2597 80 31.265 80 32.333C80 33.4037 79.5827 34.409 78.8267 35.1623L64.1613 49.8277C63.4093 50.5837 62.404 50.9997 61.3333 50.9997Z" fill="url(#paint1_linear_2359_1482)"/>
<path d="M28 61.6663C25.7947 61.6663 24 59.8717 24 57.6663C24 57.1357 24.104 56.617 24.3067 56.1263L48.308 2.79034C48.9347 1.29701 50.384 0.333008 52 0.333008C54.2053 0.333008 56 2.12767 56 4.33301C56 4.86367 55.896 5.38234 55.6933 5.87301L31.692 59.209C31.0653 60.7023 29.616 61.6663 28 61.6663Z" fill="black"/>
<path d="M28 61.6663C25.7947 61.6663 24 59.8717 24 57.6663C24 57.1357 24.104 56.617 24.3067 56.1263L48.308 2.79034C48.9347 1.29701 50.384 0.333008 52 0.333008C54.2053 0.333008 56 2.12767 56 4.33301C56 4.86367 55.896 5.38234 55.6933 5.87301L31.692 59.209C31.0653 60.7023 29.616 61.6663 28 61.6663Z" fill="url(#paint2_linear_2359_1482)"/>
<defs>
<linearGradient id="paint0_linear_2359_1482" x1="71.6655" y1="4.93066" x2="49.1814" y2="64.495" gradientUnits="userSpaceOnUse">
<stop stop-color="#06D6A0" stop-opacity="0.5"/>
<stop offset="0.490644" stop-color="#71E094"/>
<stop offset="1" stop-color="#E0EA87"/>
</linearGradient>
<linearGradient id="paint1_linear_2359_1482" x1="71.6655" y1="4.93066" x2="49.1814" y2="64.495" gradientUnits="userSpaceOnUse">
<stop stop-color="#06D6A0" stop-opacity="0.5"/>
<stop offset="0.490644" stop-color="#71E094"/>
<stop offset="1" stop-color="#E0EA87"/>
</linearGradient>
<linearGradient id="paint2_linear_2359_1482" x1="71.6655" y1="4.93066" x2="49.1814" y2="64.495" gradientUnits="userSpaceOnUse">
<stop stop-color="#06D6A0" stop-opacity="0.5"/>
<stop offset="0.490644" stop-color="#71E094"/>
<stop offset="1" stop-color="#E0EA87"/>
</linearGradient>
</defs>
</svg>
