<svg width="156" height="175" viewBox="0 0 156 175" fill="none" xmlns="http://www.w3.org/2000/svg">
<path d="M63.8275 145.498C64.6905 146.102 65.877 145.891 66.4798 145.031C71.9713 137.193 72.3719 128.756 72.2894 125.492C72.2627 124.44 71.3827 123.617 70.3374 123.636C69.2857 123.663 68.4552 124.537 68.4816 125.588C68.5547 128.475 68.202 135.936 63.3603 142.846C62.757 143.707 62.9662 144.894 63.8275 145.498Z" fill="#6F6F71"/>
<mask id="path-2-inside-1_1_1669" fill="white">
<path d="M136.252 170.122C135.985 166.265 135.164 162.043 133.811 157.574C133.506 156.567 132.443 155.999 131.436 156.303C130.43 156.608 129.861 157.671 130.165 158.678C131.436 162.874 132.205 166.813 132.452 170.385C132.475 170.705 132.229 170.988 131.901 170.988H111.732C113.833 165.968 114.848 162.434 114.896 162.266C115.184 161.255 114.597 160.202 113.586 159.913C112.574 159.626 111.522 160.211 111.233 161.222C111.22 161.265 110.025 165.416 107.589 170.987H98.4055C104.034 162.375 106.992 154.62 107.127 154.262C107.498 153.279 107.002 152.18 106.018 151.809C105.035 151.436 103.936 151.933 103.564 152.916C103.53 153.007 100.112 161.948 93.8095 170.987H78.844C82.615 167.737 86.1984 164.272 89.537 160.645C90.2492 159.871 90.1992 158.666 89.4256 157.954C88.6517 157.242 87.4469 157.292 86.7347 158.065C82.4853 162.682 77.8251 167.027 72.8825 170.987H65.9918C65.7183 170.987 65.4832 170.784 65.4451 170.516C64.8449 166.272 63.3176 158.171 59.8343 151.606C58.7712 149.602 59.2254 148.077 59.5365 146.415C60.0527 143.658 59.3181 140.841 57.521 138.687L53.8774 134.319C52.1518 132.251 52.1739 129.267 53.93 127.224C59.6228 120.602 55.653 125.357 68.8901 109.224C68.9351 109.177 69.0331 109.184 69.0661 109.268C71.7925 116.184 77.4072 128.842 84.3749 135.91C88.8832 140.487 93.6036 140.293 99.8403 140.884C98.1554 143.626 95.729 147.251 92.4785 151.349C91.825 152.173 91.9631 153.37 92.787 154.024C93.1372 154.302 93.5546 154.436 93.9692 154.436C94.5306 154.436 95.0864 154.189 95.4624 153.716C99.4919 148.635 102.311 144.239 104.044 141.283L114.847 142.308C120.098 142.806 124.691 145.885 127.135 150.544C127.624 151.476 128.774 151.835 129.707 151.346C130.638 150.858 130.997 149.706 130.508 148.775C127.464 142.972 121.743 139.136 115.207 138.516L109.225 137.949C108.118 135.713 106.872 132.567 106.253 128.842C107.943 127.231 108.932 124.972 108.932 122.547V121.598C110.904 119.921 112.343 117.884 113.154 115.678C115.096 113.549 116.358 111.133 116.876 108.567L125.598 103.284C127.722 101.999 126.944 98.7323 124.467 98.5432L114.506 97.7832C114.339 97.5436 114.164 97.3077 113.982 97.0756L120.552 87.9454C122.263 85.5691 119.606 82.4864 117.001 83.8303L104.198 90.4471C103.558 90.2344 102.903 90.0465 102.234 89.8837L99.1489 75.4913C98.443 72.1981 93.7166 72.1862 93.0082 75.4913L89.9232 89.8837C89.2539 90.0462 88.5983 90.2344 87.9593 90.4471L75.156 83.8301C72.554 82.4849 69.8936 85.5676 71.6046 87.9451L78.175 97.0754C77.9932 97.3077 77.8182 97.5436 77.6507 97.783L67.6902 98.5429C67.0107 98.5947 66.4039 98.9088 65.9738 99.3915L64.0192 93.2685V91.8687C66.0405 91.2226 67.209 89.0829 66.6314 87.0232C66.6314 87.0229 66.6311 87.0229 66.6311 87.0229L65.5546 83.1862C65.2981 82.2736 64.74 81.5256 64.0192 81.0181V76.4356H66.17C69.2623 76.4356 71.7781 73.9199 71.7781 70.8275V67.9683C71.7781 66.0653 70.2297 64.5169 68.3264 64.5169H67.8049C70.2155 57.355 67.1854 49.8043 60.6986 45.5788C59.0952 44.535 57.023 44.5348 55.4201 45.5791C49.0153 49.7513 45.874 57.2715 48.3141 64.5172H47.7925C45.8892 64.5172 44.3409 66.0655 44.3409 67.9685V70.8283C44.3409 73.9206 46.8566 76.4363 49.949 76.4363H52.0998V82.8424L51.2746 83.0739C49.1634 83.6666 47.9342 85.8542 48.5268 87.9657L49.6031 91.802C49.8895 92.8224 50.556 93.67 51.4803 94.1892C51.6803 94.3017 51.8878 94.3938 52.0998 94.4693C52.0998 98.7567 51.8274 93.9759 53.8726 121.449L51.0423 124.741C48.0678 128.202 48.0307 133.256 50.9534 136.76L54.5967 141.127C55.6634 142.406 56.0996 144.078 55.7931 145.715C55.4849 147.362 54.7252 150.102 56.47 153.391C59.8008 159.669 61.2191 167.831 61.6744 171.05C61.9768 173.186 63.8331 174.796 65.992 174.796H131.901C134.422 174.796 136.427 172.652 136.252 170.122ZM120.294 102.045L117.02 104.028C116.915 103.259 116.743 102.501 116.506 101.756L120.294 102.045ZM88.4607 134.411C88.8251 133.273 89.13 132.127 89.3743 130.981C94.0152 133.107 96.0368 133.442 98.0756 132.782C99.6471 132.271 101.257 131.671 102.783 130.981C103.312 133.465 104.069 135.678 104.85 137.534C94.1789 136.521 91.8057 136.827 88.4607 134.411ZM105.124 122.547C105.124 124.156 104.355 125.626 103.104 126.516C102.35 127.056 99.9693 128.144 97.1598 129.074C96.8409 129.179 96.1614 129.452 95.2583 129.159C93.7138 128.658 90.3297 127.417 89.0378 126.506C87.7871 125.604 87.0333 124.141 87.0333 122.547L87.0366 112.569C90.3272 111.89 93.5909 110.299 96.0787 107.887C99.2855 110.996 103.107 112.154 105.121 112.569L105.122 112.564C105.123 112.564 105.124 112.564 105.124 112.564V122.547ZM108.933 115.792V112.564C108.933 112.116 108.853 111.682 108.705 111.277C108.263 110.062 107.213 109.113 105.891 108.84H105.891C104.257 108.503 101.137 107.558 98.5974 105.022C97.2088 103.635 94.9488 103.636 93.5599 105.022C91.0203 107.558 87.9003 108.503 86.2665 108.84C84.5041 109.204 83.2247 110.77 83.2247 112.564V115.792C79.2038 108.777 85.8983 100.712 96.0789 100.712C106.189 100.712 112.988 108.718 108.933 115.792ZM114.988 89.1586L111.291 94.2948C110.474 93.6184 109.585 92.9976 108.639 92.4395L114.988 89.1586ZM96.0789 79.3395L98.2006 89.2393C97.5026 89.1837 96.7949 89.1545 96.0789 89.1545C95.3627 89.1545 94.6548 89.1834 93.9568 89.2393L96.0789 79.3395ZM111.816 100.597C113.142 102.792 113.58 105.138 113.212 107.426C110.838 100.749 103.339 96.9037 96.0787 96.9037C87.7267 96.9037 81.0355 101.543 78.9453 107.426C76.6119 92.9316 103.694 87.0968 111.816 100.597ZM77.17 89.1586L83.5184 92.4395C82.5721 92.9974 81.6837 93.6184 80.8661 94.2948L77.17 89.1586ZM75.6516 101.756C75.4142 102.501 75.2426 103.259 75.1375 104.028L71.8631 102.045L75.6516 101.756ZM75.2809 108.568C75.7984 111.134 77.0611 113.55 79.0035 115.679C79.8142 117.885 81.2536 119.922 83.2247 121.598V122.547C83.2247 124.972 84.2139 127.231 85.9026 128.842C85.7645 129.673 85.5893 130.507 85.3783 131.34C79.4112 124.193 74.5383 112.762 72.6101 107.871C72.3331 107.168 71.8738 106.58 71.2926 106.152L75.2809 108.568ZM70.6984 105.792C69.8529 105.378 68.8703 105.268 67.9311 105.524L67.3743 103.779L70.6984 105.792ZM55.9117 97.5824C55.9109 97.5766 55.9092 97.5707 55.9084 97.5649V94.1529L60.2103 92.9456V97.5677C60.2103 97.6197 60.1682 97.6619 60.1164 97.6619H56.0023C55.947 97.6621 55.916 97.6154 55.9117 97.5824ZM64.7921 108.214L57.3793 117.249L56.2044 101.47H60.1164C60.9662 101.47 61.7678 101.19 62.4026 100.729L64.7921 108.214ZM57.4986 48.7707C57.8394 48.5485 58.2799 48.5488 58.6201 48.7704C63.9153 52.2197 65.7932 57.8224 64.3592 62.7914C63.7056 60.4681 62.1687 58.3861 59.9757 56.9579C58.8121 56.1997 57.3074 56.1997 56.1433 56.9579C53.9503 58.3861 52.4134 60.4681 51.7598 62.7914C50.3219 57.8138 52.2128 52.2136 57.4986 48.7707ZM60.8464 64.5172H55.2724C55.5118 62.8472 56.4962 61.3324 58.0595 60.2582C59.6228 61.3324 60.6069 62.847 60.8464 64.5172ZM49.949 72.6275C48.9567 72.6275 48.1495 71.8203 48.1495 70.828V68.3258H67.9692V70.828C67.9692 71.8203 67.162 72.6275 66.1698 72.6275C64.4394 72.6275 51.6778 72.6275 49.949 72.6275ZM60.2103 76.4361V80.5664L55.9084 81.7734V76.4361H60.2103ZM53.4661 90.8826C53.382 90.907 53.2937 90.8572 53.2703 90.7729L52.194 86.9366C52.1699 86.851 52.2186 86.7647 52.3037 86.7409L61.6921 84.1066C61.7622 84.0858 61.8625 84.1251 61.8879 84.2163L62.9642 88.0525C62.9881 88.1368 62.9386 88.2247 62.8545 88.2483C61.8414 88.5324 54.4822 90.5972 53.4661 90.8826Z"/>
</mask>
<path d="M136.252 170.122C135.985 166.265 135.164 162.043 133.811 157.574C133.506 156.567 132.443 155.999 131.436 156.303C130.43 156.608 129.861 157.671 130.165 158.678C131.436 162.874 132.205 166.813 132.452 170.385C132.475 170.705 132.229 170.988 131.901 170.988H111.732C113.833 165.968 114.848 162.434 114.896 162.266C115.184 161.255 114.597 160.202 113.586 159.913C112.574 159.626 111.522 160.211 111.233 161.222C111.22 161.265 110.025 165.416 107.589 170.987H98.4055C104.034 162.375 106.992 154.62 107.127 154.262C107.498 153.279 107.002 152.18 106.018 151.809C105.035 151.436 103.936 151.933 103.564 152.916C103.53 153.007 100.112 161.948 93.8095 170.987H78.844C82.615 167.737 86.1984 164.272 89.537 160.645C90.2492 159.871 90.1992 158.666 89.4256 157.954C88.6517 157.242 87.4469 157.292 86.7347 158.065C82.4853 162.682 77.8251 167.027 72.8825 170.987H65.9918C65.7183 170.987 65.4832 170.784 65.4451 170.516C64.8449 166.272 63.3176 158.171 59.8343 151.606C58.7712 149.602 59.2254 148.077 59.5365 146.415C60.0527 143.658 59.3181 140.841 57.521 138.687L53.8774 134.319C52.1518 132.251 52.1739 129.267 53.93 127.224C59.6228 120.602 55.653 125.357 68.8901 109.224C68.9351 109.177 69.0331 109.184 69.0661 109.268C71.7925 116.184 77.4072 128.842 84.3749 135.91C88.8832 140.487 93.6036 140.293 99.8403 140.884C98.1554 143.626 95.729 147.251 92.4785 151.349C91.825 152.173 91.9631 153.37 92.787 154.024C93.1372 154.302 93.5546 154.436 93.9692 154.436C94.5306 154.436 95.0864 154.189 95.4624 153.716C99.4919 148.635 102.311 144.239 104.044 141.283L114.847 142.308C120.098 142.806 124.691 145.885 127.135 150.544C127.624 151.476 128.774 151.835 129.707 151.346C130.638 150.858 130.997 149.706 130.508 148.775C127.464 142.972 121.743 139.136 115.207 138.516L109.225 137.949C108.118 135.713 106.872 132.567 106.253 128.842C107.943 127.231 108.932 124.972 108.932 122.547V121.598C110.904 119.921 112.343 117.884 113.154 115.678C115.096 113.549 116.358 111.133 116.876 108.567L125.598 103.284C127.722 101.999 126.944 98.7323 124.467 98.5432L114.506 97.7832C114.339 97.5436 114.164 97.3077 113.982 97.0756L120.552 87.9454C122.263 85.5691 119.606 82.4864 117.001 83.8303L104.198 90.4471C103.558 90.2344 102.903 90.0465 102.234 89.8837L99.1489 75.4913C98.443 72.1981 93.7166 72.1862 93.0082 75.4913L89.9232 89.8837C89.2539 90.0462 88.5983 90.2344 87.9593 90.4471L75.156 83.8301C72.554 82.4849 69.8936 85.5676 71.6046 87.9451L78.175 97.0754C77.9932 97.3077 77.8182 97.5436 77.6507 97.783L67.6902 98.5429C67.0107 98.5947 66.4039 98.9088 65.9738 99.3915L64.0192 93.2685V91.8687C66.0405 91.2226 67.209 89.0829 66.6314 87.0232C66.6314 87.0229 66.6311 87.0229 66.6311 87.0229L65.5546 83.1862C65.2981 82.2736 64.74 81.5256 64.0192 81.0181V76.4356H66.17C69.2623 76.4356 71.7781 73.9199 71.7781 70.8275V67.9683C71.7781 66.0653 70.2297 64.5169 68.3264 64.5169H67.8049C70.2155 57.355 67.1854 49.8043 60.6986 45.5788C59.0952 44.535 57.023 44.5348 55.4201 45.5791C49.0153 49.7513 45.874 57.2715 48.3141 64.5172H47.7925C45.8892 64.5172 44.3409 66.0655 44.3409 67.9685V70.8283C44.3409 73.9206 46.8566 76.4363 49.949 76.4363H52.0998V82.8424L51.2746 83.0739C49.1634 83.6666 47.9342 85.8542 48.5268 87.9657L49.6031 91.802C49.8895 92.8224 50.556 93.67 51.4803 94.1892C51.6803 94.3017 51.8878 94.3938 52.0998 94.4693C52.0998 98.7567 51.8274 93.9759 53.8726 121.449L51.0423 124.741C48.0678 128.202 48.0307 133.256 50.9534 136.76L54.5967 141.127C55.6634 142.406 56.0996 144.078 55.7931 145.715C55.4849 147.362 54.7252 150.102 56.47 153.391C59.8008 159.669 61.2191 167.831 61.6744 171.05C61.9768 173.186 63.8331 174.796 65.992 174.796H131.901C134.422 174.796 136.427 172.652 136.252 170.122ZM120.294 102.045L117.02 104.028C116.915 103.259 116.743 102.501 116.506 101.756L120.294 102.045ZM88.4607 134.411C88.8251 133.273 89.13 132.127 89.3743 130.981C94.0152 133.107 96.0368 133.442 98.0756 132.782C99.6471 132.271 101.257 131.671 102.783 130.981C103.312 133.465 104.069 135.678 104.85 137.534C94.1789 136.521 91.8057 136.827 88.4607 134.411ZM105.124 122.547C105.124 124.156 104.355 125.626 103.104 126.516C102.35 127.056 99.9693 128.144 97.1598 129.074C96.8409 129.179 96.1614 129.452 95.2583 129.159C93.7138 128.658 90.3297 127.417 89.0378 126.506C87.7871 125.604 87.0333 124.141 87.0333 122.547L87.0366 112.569C90.3272 111.89 93.5909 110.299 96.0787 107.887C99.2855 110.996 103.107 112.154 105.121 112.569L105.122 112.564C105.123 112.564 105.124 112.564 105.124 112.564V122.547ZM108.933 115.792V112.564C108.933 112.116 108.853 111.682 108.705 111.277C108.263 110.062 107.213 109.113 105.891 108.84H105.891C104.257 108.503 101.137 107.558 98.5974 105.022C97.2088 103.635 94.9488 103.636 93.5599 105.022C91.0203 107.558 87.9003 108.503 86.2665 108.84C84.5041 109.204 83.2247 110.77 83.2247 112.564V115.792C79.2038 108.777 85.8983 100.712 96.0789 100.712C106.189 100.712 112.988 108.718 108.933 115.792ZM114.988 89.1586L111.291 94.2948C110.474 93.6184 109.585 92.9976 108.639 92.4395L114.988 89.1586ZM96.0789 79.3395L98.2006 89.2393C97.5026 89.1837 96.7949 89.1545 96.0789 89.1545C95.3627 89.1545 94.6548 89.1834 93.9568 89.2393L96.0789 79.3395ZM111.816 100.597C113.142 102.792 113.58 105.138 113.212 107.426C110.838 100.749 103.339 96.9037 96.0787 96.9037C87.7267 96.9037 81.0355 101.543 78.9453 107.426C76.6119 92.9316 103.694 87.0968 111.816 100.597ZM77.17 89.1586L83.5184 92.4395C82.5721 92.9974 81.6837 93.6184 80.8661 94.2948L77.17 89.1586ZM75.6516 101.756C75.4142 102.501 75.2426 103.259 75.1375 104.028L71.8631 102.045L75.6516 101.756ZM75.2809 108.568C75.7984 111.134 77.0611 113.55 79.0035 115.679C79.8142 117.885 81.2536 119.922 83.2247 121.598V122.547C83.2247 124.972 84.2139 127.231 85.9026 128.842C85.7645 129.673 85.5893 130.507 85.3783 131.34C79.4112 124.193 74.5383 112.762 72.6101 107.871C72.3331 107.168 71.8738 106.58 71.2926 106.152L75.2809 108.568ZM70.6984 105.792C69.8529 105.378 68.8703 105.268 67.9311 105.524L67.3743 103.779L70.6984 105.792ZM55.9117 97.5824C55.9109 97.5766 55.9092 97.5707 55.9084 97.5649V94.1529L60.2103 92.9456V97.5677C60.2103 97.6197 60.1682 97.6619 60.1164 97.6619H56.0023C55.947 97.6621 55.916 97.6154 55.9117 97.5824ZM64.7921 108.214L57.3793 117.249L56.2044 101.47H60.1164C60.9662 101.47 61.7678 101.19 62.4026 100.729L64.7921 108.214ZM57.4986 48.7707C57.8394 48.5485 58.2799 48.5488 58.6201 48.7704C63.9153 52.2197 65.7932 57.8224 64.3592 62.7914C63.7056 60.4681 62.1687 58.3861 59.9757 56.9579C58.8121 56.1997 57.3074 56.1997 56.1433 56.9579C53.9503 58.3861 52.4134 60.4681 51.7598 62.7914C50.3219 57.8138 52.2128 52.2136 57.4986 48.7707ZM60.8464 64.5172H55.2724C55.5118 62.8472 56.4962 61.3324 58.0595 60.2582C59.6228 61.3324 60.6069 62.847 60.8464 64.5172ZM49.949 72.6275C48.9567 72.6275 48.1495 71.8203 48.1495 70.828V68.3258H67.9692V70.828C67.9692 71.8203 67.162 72.6275 66.1698 72.6275C64.4394 72.6275 51.6778 72.6275 49.949 72.6275ZM60.2103 76.4361V80.5664L55.9084 81.7734V76.4361H60.2103ZM53.4661 90.8826C53.382 90.907 53.2937 90.8572 53.2703 90.7729L52.194 86.9366C52.1699 86.851 52.2186 86.7647 52.3037 86.7409L61.6921 84.1066C61.7622 84.0858 61.8625 84.1251 61.8879 84.2163L62.9642 88.0525C62.9881 88.1368 62.9386 88.2247 62.8545 88.2483C61.8414 88.5324 54.4822 90.5972 53.4661 90.8826Z" fill="url(#paint0_linear_1_1669)" stroke="#0A090E" stroke-width="2" mask="url(#path-2-inside-1_1_1669)"/>
<g filter="url(#filter0_f_1_1669)">
<path d="M57.4084 41.36C57.9982 40.9754 58.7608 40.9758 59.3498 41.3595C68.5159 47.3304 71.7666 57.0288 69.2842 65.6302C68.1529 61.6086 65.4925 58.0046 61.6964 55.5323C59.682 54.2199 57.0774 54.2199 55.0622 55.5323C51.2661 58.0046 48.6057 61.6086 47.4744 65.6302C44.9854 57.0139 48.2585 47.3198 57.4084 41.36ZM63.2035 68.6177H53.5547C53.9692 65.7269 55.6732 63.1048 58.3793 61.2451C61.0854 63.1048 62.789 65.7265 63.2035 68.6177ZM44.3397 82.6568C42.6221 82.6568 41.2248 81.2596 41.2248 79.5419V75.2105H75.5333V79.5419C75.5333 81.2596 74.1361 82.6568 72.4184 82.6568C69.4231 82.6568 47.3324 82.6568 44.3397 82.6568ZM62.1025 89.2496V96.3993L54.6557 98.4887V89.2496H62.1025Z" fill="#F69923"/>
</g>
<defs>
<filter id="filter0_f_1_1669" x="0.632042" y="0.479492" width="115.495" height="132.009" filterUnits="userSpaceOnUse" color-interpolation-filters="sRGB">
<feFlood flood-opacity="0" result="BackgroundImageFix"/>
<feBlend mode="normal" in="SourceGraphic" in2="BackgroundImageFix" result="shape"/>
<feGaussianBlur stdDeviation="17" result="effect1_foregroundBlur_1_1669"/>
</filter>
<linearGradient id="paint0_linear_1_1669" x1="56.6626" y1="55.9946" x2="90.3018" y2="174.796" gradientUnits="userSpaceOnUse">
<stop stop-color="#F69923"/>
<stop offset="0.490385" stop-color="white" stop-opacity="0.7"/>
<stop offset="1" stop-color="white" stop-opacity="0.3"/>
</linearGradient>
</defs>
</svg>
