<svg width="76" height="15" viewBox="0 0 76 15" fill="none" xmlns="http://www.w3.org/2000/svg">
<path d="M14.25 0.5H0V14.5H14.25V0.5Z" fill="#00B67A"/>
<path d="M29.6875 0.5H15.4375V14.5H29.6875V0.5Z" fill="#00B67A"/>
<path d="M45.125 0.5H30.875V14.5H45.125V0.5Z" fill="#00B67A"/>
<path d="M60.5625 0.5H46.3125V14.5H60.5625V0.5Z" fill="#00B67A"/>
<path d="M76 0.5H61.75V14.5H76V0.5Z" fill="#00B67A"/>
<path d="M7.12422 9.93522L9.29141 9.39564L10.1969 12.1373L7.12422 9.93522ZM12.1117 6.39147H8.29688L7.12422 2.8623L5.95156 6.39147H2.13672L5.22422 8.57897L4.05156 12.1081L7.13906 9.92064L9.03906 8.57897L12.1117 6.39147Z" fill="white"/>
<path d="M22.5617 9.93522L24.7289 9.39564L25.6344 12.1373L22.5617 9.93522ZM27.5492 6.39147H23.7344L22.5617 2.8623L21.3891 6.39147H17.5742L20.6617 8.57897L19.4891 12.1081L22.5766 9.92064L24.4766 8.57897L27.5492 6.39147Z" fill="white"/>
<path d="M37.9992 9.93522L40.1664 9.39564L41.0719 12.1373L37.9992 9.93522ZM42.9867 6.39147H39.1719L37.9992 2.8623L36.8266 6.39147H33.0117L36.0992 8.57897L34.9266 12.1081L38.0141 9.92064L39.9141 8.57897L42.9867 6.39147Z" fill="white"/>
<path d="M53.4367 9.93522L55.6039 9.39564L56.5094 12.1373L53.4367 9.93522ZM58.4242 6.39147H54.6094L53.4367 2.8623L52.2641 6.39147H48.4492L51.5367 8.57897L50.3641 12.1081L53.4516 9.92064L55.3516 8.57897L58.4242 6.39147Z" fill="white"/>
<path d="M68.8742 9.93522L71.0414 9.39564L71.9469 12.1373L68.8742 9.93522ZM73.8617 6.39147H70.0469L68.8742 2.8623L67.7016 6.39147H63.8867L66.9742 8.57897L65.8016 12.1081L68.8891 9.92064L70.7891 8.57897L73.8617 6.39147Z" fill="white"/>
</svg>
